<?xml version="1.0" standalone="no"?>
<!DOCTYPE svg PUBLIC "-//W3C//DTD SVG 20010904//EN"
 "http://www.w3.org/TR/2001/REC-SVG-20010904/DTD/svg10.dtd">
<svg version="1.0" xmlns="http://www.w3.org/2000/svg"
 width="757.000000pt" height="768.000000pt" viewBox="0 0 757.000000 768.000000"
 preserveAspectRatio="xMidYMid meet">

<g transform="translate(0.000000,768.000000) scale(0.100000,-0.100000)"
fill="#000000" stroke="none">
<path d="M5750 7135 c-30 -14 -61 -24 -69 -25 -8 0 -21 -7 -30 -15 -9 -9 -51
-42 -94 -73 -42 -31 -84 -70 -93 -86 -14 -28 -13 -31 5 -49 20 -20 20 -20 26
6 4 16 22 36 44 48 20 12 41 27 46 33 21 23 102 82 137 100 37 18 95 72 87 80
-2 2 -29 -6 -59 -19z"/>
<path d="M3057 7130 c-97 -37 -147 -69 -243 -156 -31 -29 -34 -37 -34 -89 0
-50 2 -56 15 -45 8 7 15 22 15 34 0 25 47 71 130 128 30 20 73 50 95 67 22 16
52 38 68 48 28 18 36 34 15 32 -7 0 -34 -9 -61 -19z"/>
<path d="M4556 7085 c25 -19 40 -19 24 0 -7 8 -20 15 -28 15 -13 0 -12 -3 4
-15z"/>
<path d="M1905 7070 c3 -5 11 -10 16 -10 6 0 7 5 4 10 -3 6 -11 10 -16 10 -6
0 -7 -4 -4 -10z"/>
<path d="M4655 7020 c3 -5 8 -10 11 -10 2 0 4 5 4 10 0 6 -5 10 -11 10 -5 0
-7 -4 -4 -10z"/>
<path d="M5474 6828 c3 -17 8 -34 11 -36 11 -11 16 9 10 37 -9 42 -29 41 -21
-1z"/>
<path d="M2806 6812 c-3 -6 -1 -14 5 -17 15 -10 25 3 12 16 -7 7 -13 7 -17 1z"/>
<path d="M2814 6764 c4 -9 3 -39 0 -66 l-7 -50 -44 5 c-25 3 -58 14 -74 26
-15 12 -40 21 -54 21 -14 0 -25 5 -25 10 0 6 -8 10 -18 10 -10 0 -22 4 -27 9
-6 5 -39 14 -75 20 -68 11 -100 7 -155 -23 -16 -8 -65 -32 -108 -51 -80 -37
-182 -103 -172 -113 6 -6 85 17 99 30 6 4 18 8 28 8 10 0 26 4 36 9 20 11 57
26 170 71 56 22 86 29 95 22 6 -5 39 -19 72 -31 64 -24 119 -47 147 -62 10 -5
25 -9 34 -9 9 0 27 -9 41 -20 14 -11 33 -20 41 -20 9 0 23 -7 32 -15 10 -9 24
-13 32 -10 19 8 21 64 3 72 -9 3 -17 26 -21 54 -4 27 -10 49 -15 49 -5 0 -9 9
-9 19 0 27 -10 51 -22 51 -6 0 -7 -7 -4 -16z"/>
<path d="M5094 6751 c-64 -11 -348 -157 -368 -190 -8 -13 58 4 124 31 30 13
36 15 160 63 52 20 104 41 115 46 21 10 105 -20 260 -91 120 -56 195 -81 195
-65 0 3 -4 13 -9 23 -15 31 -51 147 -51 165 0 9 -4 17 -10 17 -10 0 -15 -27
-11 -64 2 -30 -19 -48 -48 -41 -14 3 -60 22 -101 42 -111 52 -176 75 -205 72
-5 -1 -29 -5 -51 -8z"/>
<path d="M1546 6285 c-16 -12 -18 -27 -17 -117 1 -56 4 -104 7 -107 6 -6 174
-2 196 5 13 4 15 13 11 39 -4 25 -1 36 8 39 8 2 228 9 489 15 261 6 583 14
715 19 344 10 1868 7 2409 -5 355 -9 460 -14 467 -24 4 -7 6 -26 4 -43 -2 -17
1 -34 8 -38 7 -4 49 -8 93 -8 96 0 94 -3 89 128 -3 67 -7 87 -22 98 -28 21
-4429 20 -4457 -1z"/>
<path d="M1040 5315 c0 -676 1 -717 18 -735 17 -18 35 -20 243 -22 l224 -3 0
-30 c0 -32 1 -32 -77 -19 -35 6 -41 3 -93 -50 -31 -31 -64 -56 -73 -56 -26 1
-52 25 -52 49 0 16 -11 27 -46 41 -25 11 -53 20 -62 20 -30 -1 -68 -39 -88
-90 -3 -8 -16 -23 -29 -32 -22 -17 -24 -16 -59 10 -19 15 -35 32 -36 37 -1 27
-87 74 -136 75 -26 0 -64 -39 -64 -66 0 -11 -5 -25 -10 -30 -6 -6 -12 -26 -15
-44 -2 -18 -9 -36 -15 -40 -6 -4 -13 -24 -14 -46 -2 -21 -9 -40 -15 -42 -6 -2
-11 -25 -11 -52 0 -30 -5 -52 -15 -60 -10 -9 -15 -31 -15 -73 0 -42 -5 -66
-17 -79 -15 -17 -15 -19 0 -36 10 -10 17 -32 17 -49 0 -17 7 -36 15 -43 8 -7
15 -23 15 -36 0 -13 4 -24 9 -24 5 0 13 -10 17 -22 3 -12 13 -28 20 -36 21
-20 17 -40 -16 -82 -21 -26 -30 -49 -30 -74 0 -23 -5 -39 -15 -42 -9 -4 -15
-19 -15 -39 0 -18 -7 -38 -15 -45 -9 -8 -15 -29 -15 -55 0 -24 -7 -56 -15 -71
-8 -16 -15 -48 -15 -70 0 -25 -6 -47 -15 -54 -11 -9 -15 -32 -15 -79 0 -37 -5
-72 -12 -79 -8 -8 -8 -15 -1 -24 6 -7 13 -40 16 -73 3 -33 11 -61 17 -63 5 -2
10 -12 10 -23 0 -11 7 -22 15 -25 8 -4 15 -14 15 -24 0 -10 7 -20 15 -24 9 -3
15 -18 15 -36 0 -25 -4 -30 -25 -30 -18 0 -28 -7 -35 -24 -5 -13 -14 -27 -19
-31 -6 -3 -11 -28 -11 -54 0 -26 -5 -52 -10 -57 -6 -6 -13 -35 -17 -65 -3 -30
-10 -60 -15 -66 -6 -7 -12 -41 -13 -75 -3 -42 -9 -66 -19 -74 -13 -9 -16 -33
-16 -121 0 -105 1 -111 21 -116 16 -4 20 -11 16 -26 -3 -11 1 -25 9 -32 8 -6
14 -16 14 -21 0 -13 42 -70 67 -91 13 -10 23 -22 23 -27 0 -25 199 -200 228
-200 22 0 212 -145 212 -161 0 -15 -30 -23 -43 -10 -6 6 -44 11 -88 11 -43 0
-81 5 -84 10 -8 13 -102 13 -110 0 -3 -6 -15 -10 -25 -10 -24 0 -42 -32 -33
-57 3 -10 19 -34 35 -54 15 -20 28 -42 28 -48 0 -6 5 -11 10 -11 6 0 14 -8 17
-18 4 -9 23 -37 43 -62 21 -25 40 -53 43 -63 4 -9 11 -17 17 -17 5 0 10 -6 10
-12 0 -7 25 -40 55 -72 30 -33 55 -62 55 -66 0 -18 185 -200 218 -216 20 -9
49 -25 64 -35 14 -11 35 -19 45 -19 10 0 23 -4 29 -8 5 -5 29 -14 54 -21 25
-7 59 -16 75 -21 157 -43 270 -60 401 -60 150 0 254 21 304 61 29 24 43 29 52
21 7 -5 24 -12 38 -14 36 -5 34 -39 -4 -49 -15 -4 -36 -14 -45 -22 -9 -8 -36
-24 -61 -36 -57 -28 -82 -49 -96 -81 -17 -38 1 -68 45 -76 20 -4 41 -10 46
-14 6 -4 26 -10 45 -13 36 -6 85 -17 155 -37 52 -14 196 -40 260 -47 28 -3 54
-9 59 -14 15 -13 240 -11 253 2 7 7 19 9 28 5 13 -5 15 -14 10 -49 -6 -40 -4
-45 20 -61 21 -14 41 -17 98 -13 90 7 164 20 242 42 33 10 71 20 85 23 14 2
37 13 52 23 14 11 33 19 41 19 17 0 101 61 130 93 9 11 17 28 17 37 0 39 61
65 89 38 15 -16 159 -14 175 2 18 18 56 11 65 -12 15 -38 100 -116 170 -157
92 -53 204 -91 269 -91 22 0 44 -4 47 -10 8 -13 149 -13 173 -1 9 5 25 12 34
15 21 6 24 46 6 64 -9 9 -8 16 5 29 14 14 20 15 40 4 35 -19 320 -4 372 19 11
5 38 11 60 14 37 4 127 23 220 47 22 6 58 14 80 19 60 13 116 28 119 32 19 23
22 43 9 69 -15 30 -88 89 -111 89 -7 0 -28 11 -46 25 -18 14 -43 25 -55 25
-26 0 -26 28 -1 40 8 4 25 12 38 19 24 13 42 7 42 -12 0 -14 45 -35 110 -49
69 -16 287 -21 365 -9 135 22 186 32 238 47 28 9 70 20 92 26 45 11 60 17 125
46 56 25 160 101 160 117 0 7 14 22 30 35 17 13 30 27 30 32 0 5 14 21 30 35
17 13 30 29 30 35 0 6 11 19 25 30 14 11 25 26 25 34 0 8 5 14 10 14 6 0 15
11 20 24 5 14 21 32 35 42 14 9 25 23 25 30 0 8 6 17 14 20 8 3 17 13 20 22 8
23 32 58 89 130 62 79 63 109 5 136 -32 15 -45 17 -59 8 -11 -7 -58 -12 -108
-12 -50 0 -93 -4 -96 -10 -9 -14 -62 -13 -71 2 -4 6 5 21 22 35 86 71 182 139
223 158 45 22 191 154 191 173 0 5 10 17 21 28 29 26 86 115 95 148 3 14 12
26 20 26 11 0 14 22 14 105 0 82 -3 105 -14 105 -9 0 -15 23 -19 81 -4 45 -11
87 -15 93 -5 6 -12 33 -15 60 -2 27 -9 51 -14 55 -6 3 -13 31 -16 63 -6 65
-29 106 -63 114 -18 5 -24 13 -24 34 0 15 7 33 15 40 8 7 15 18 15 25 0 7 7
18 15 25 8 7 15 21 15 32 0 11 7 27 16 36 14 14 16 35 12 150 -3 74 -10 137
-15 141 -6 3 -13 28 -17 55 -3 28 -10 52 -15 56 -5 3 -11 27 -13 53 -2 26 -10
53 -16 59 -7 7 -12 26 -12 44 0 17 -7 37 -15 44 -8 7 -15 27 -15 45 0 18 -7
38 -15 45 -8 7 -15 19 -15 28 0 9 -9 25 -20 37 -17 18 -19 27 -11 48 5 14 15
28 20 32 6 3 11 17 11 31 0 14 7 27 15 30 9 4 15 19 15 35 0 17 6 32 15 35 12
5 15 28 15 124 0 92 -3 120 -15 130 -9 7 -15 29 -15 55 0 26 -6 48 -15 55 -8
7 -15 25 -15 39 0 15 -7 36 -15 47 -8 10 -15 29 -15 40 0 12 -7 27 -15 34 -8
7 -15 25 -15 40 0 35 -41 70 -82 70 -30 0 -107 -47 -108 -65 0 -5 -18 -25 -41
-43 -34 -29 -42 -32 -56 -20 -31 24 -53 48 -53 56 0 12 -52 58 -74 66 -22 8
-96 -38 -96 -60 0 -13 -46 -54 -62 -54 -5 0 -36 28 -69 61 l-61 62 -49 -6
c-54 -7 -73 9 -49 38 10 12 43 15 170 15 139 0 159 2 173 18 27 29 20 40 -25
47 -24 3 -1217 7 -2653 8 l-2609 2 -1 245 c-1 171 -5 252 -14 268 -6 12 -11
41 -10 65 1 23 0 90 0 149 -2 67 2 115 10 129 8 16 11 94 10 268 -2 234 -6
271 -32 271 -5 0 -9 -312 -9 -715z m3450 -774 c21 -5 27 -10 15 -10 -29 -2
-82 -48 -70 -60 6 -5 42 -17 80 -26 115 -28 149 -37 170 -45 26 -11 83 -21
118 -20 15 0 27 -4 27 -10 0 -5 -24 -10 -55 -10 -48 0 -55 -2 -55 -20 0 -11
-5 -20 -10 -20 -6 0 -15 -11 -20 -25 -5 -14 -14 -25 -20 -25 -5 0 -10 -7 -10
-16 0 -21 -29 -43 -56 -44 -30 0 -36 -11 -19 -31 15 -15 13 -18 -18 -38 -19
-11 -44 -21 -56 -21 -22 0 -28 -14 -11 -25 18 -11 10 -25 -14 -25 -14 0 -28
-4 -31 -10 -3 -5 -19 -7 -34 -4 -17 4 -32 1 -36 -6 -9 -14 177 -8 249 9 51 11
90 -1 45 -14 -13 -4 -53 -19 -89 -33 l-65 -27 -595 0 c-745 -1 -870 8 -1034
69 -103 39 -277 139 -320 185 -47 50 -60 42 -52 -30 3 -34 2 -67 -3 -73 -5 -6
-11 -31 -12 -55 -4 -40 0 -48 46 -101 28 -31 64 -63 80 -70 17 -7 33 -15 36
-17 4 -2 9 4 13 13 7 19 -19 54 -41 54 -8 0 -13 12 -13 30 l0 31 69 -58 c89
-75 207 -144 301 -177 105 -37 288 -59 427 -52 l112 5 3 -42 c4 -59 -10 -375
-21 -464 -6 -46 -16 -82 -27 -94 -16 -18 -16 -20 0 -38 10 -11 13 -22 8 -25
-5 -3 -18 6 -28 19 -10 14 -24 25 -31 25 -19 0 -27 -21 -12 -31 11 -6 11 -11
2 -20 -9 -9 -16 -9 -26 -1 -11 9 -20 4 -43 -24 -16 -20 -35 -42 -41 -49 -7 -8
-13 -21 -13 -29 0 -9 -5 -16 -10 -16 -6 0 -14 -8 -17 -17 -4 -10 -22 -33 -40
-51 -40 -40 -86 -42 -91 -4 -4 27 -22 29 -22 2 0 -11 5 -20 10 -20 6 0 10 -12
10 -27 0 -14 6 -34 13 -42 7 -9 19 -34 26 -56 7 -22 19 -47 26 -55 7 -8 12
-22 12 -31 0 -16 14 -50 89 -207 18 -40 34 -79 34 -88 0 -27 70 -126 126 -177
30 -27 54 -55 54 -63 0 -30 -44 -12 -99 41 -48 46 -66 73 -101 153 -23 53 -64
142 -91 197 -27 55 -49 103 -49 108 0 4 -13 35 -29 70 -17 34 -48 101 -70 148
-23 47 -41 92 -41 100 0 8 -6 23 -13 34 -8 11 -35 70 -61 130 -26 61 -60 137
-76 170 -67 144 -90 195 -90 199 0 2 -7 20 -15 41 -18 42 -31 38 -62 -23 -10
-20 -34 -64 -52 -97 -111 -200 -228 -409 -261 -465 -38 -66 -117 -208 -158
-283 -12 -23 -31 -55 -42 -72 -11 -16 -23 -37 -27 -45 -33 -70 -164 -270 -203
-309 -39 -39 -62 -52 -121 -70 -41 -13 -87 -28 -102 -33 -15 -6 -30 -9 -32 -6
-7 7 -6 1048 1 1291 3 117 7 382 8 589 l1 378 353 5 c194 3 376 10 405 16 28
6 63 11 75 10 27 -1 332 42 515 73 41 7 50 15 36 32 -9 11 -7 14 12 14 23 1
23 1 5 15 -11 8 -18 16 -15 17 35 15 1300 15 1359 -1z m-1417 -8 c-7 -2 -19
-2 -25 0 -7 3 -2 5 12 5 14 0 19 -2 13 -5z m2758 -673 c3 -272 5 -841 3 -1265
-2 -812 -3 -815 -48 -904 -10 -18 -48 -63 -84 -100 -81 -80 -222 -154 -377
-196 -55 -15 -122 -36 -150 -46 -27 -10 -75 -23 -105 -28 -30 -6 -77 -16 -105
-21 -27 -6 -129 -22 -225 -36 -384 -56 -567 -118 -883 -301 -90 -53 -68 -56
-240 39 -62 35 -128 70 -147 79 -19 9 -60 28 -90 42 -49 22 -133 51 -225 77
-16 5 -58 14 -92 21 -34 7 -60 16 -58 20 3 3 41 5 86 3 80 -4 81 -3 65 15 -16
18 -16 19 14 32 16 8 33 23 37 34 7 25 32 44 57 45 12 0 16 5 12 16 -3 9 -1
34 5 55 10 31 17 39 36 39 12 0 23 6 23 13 0 14 59 71 84 80 9 4 13 13 10 22
-4 8 -1 15 6 15 8 0 10 9 6 25 -8 30 -8 30 119 11 89 -13 161 -43 212 -89 13
-12 29 -17 41 -13 21 7 72 -11 72 -26 0 -4 6 -8 14 -8 7 0 35 -10 61 -21 129
-57 305 -38 490 53 62 31 125 83 125 104 0 8 -36 13 -122 16 -106 4 -132 8
-190 32 -55 23 -74 37 -109 82 -23 30 -64 75 -91 99 -50 45 -62 75 -29 75 15
0 21 8 23 32 l3 32 83 -2 c45 0 82 3 82 8 0 5 -10 11 -22 13 -25 5 71 8 303
12 150 2 169 6 169 31 0 10 -12 14 -40 14 -59 0 -99 21 -147 75 -47 53 -51 66
-27 85 8 8 21 28 29 46 7 18 22 41 32 51 10 10 25 30 34 43 l16 25 266 3 266
4 20 -41 c25 -48 27 -110 5 -154 -8 -18 -39 -53 -67 -79 l-52 -47 20 -20 c19
-20 35 -21 355 -22 184 -2 345 1 358 5 29 10 28 22 -5 40 -63 33 -120 108
-177 234 -31 68 -56 125 -56 127 0 2 -17 41 -39 87 -21 46 -54 119 -74 163
-19 44 -56 125 -82 180 -51 108 -100 213 -132 285 -11 25 -50 110 -86 190 -76
167 -88 208 -64 222 26 14 20 37 -13 56 -16 9 -30 21 -30 26 0 4 -34 77 -75
162 -41 85 -75 158 -75 163 0 5 -7 14 -15 21 -8 7 -15 21 -15 31 0 10 -9 23
-20 29 -24 13 -26 38 -5 46 31 12 62 -26 124 -152 34 -71 67 -136 71 -144 14
-24 47 -94 54 -113 11 -33 29 -6 23 34 -4 32 -1 41 14 50 28 14 12 31 -22 24
-39 -9 -37 8 5 30 33 18 39 45 10 45 -8 0 -14 7 -14 15 0 12 4 14 19 5 11 -5
23 -15 26 -20 8 -13 45 -13 45 -1 0 5 -12 19 -27 32 -16 12 -23 24 -17 26 6 2
20 10 30 17 15 12 16 16 5 30 -23 28 13 20 40 -9 13 -13 29 -25 36 -25 18 0
26 19 13 35 -7 9 -8 15 0 20 5 3 10 17 10 30 0 13 8 28 18 34 13 7 14 13 5 22
-6 6 -9 18 -6 25 3 8 0 21 -7 29 -21 26 -1 30 25 5 14 -13 31 -20 39 -17 20 8
20 23 1 31 -18 7 -20 35 -2 37 6 1 24 2 39 3 39 1 30 21 -9 21 -33 1 -62 19
-50 31 4 4 13 1 21 -5 12 -10 20 -9 40 4 14 10 26 21 26 26 0 15 -21 21 -35 9
-13 -11 -30 1 -18 14 3 3 45 6 92 6 47 0 93 4 101 10 9 6 17 5 22 -3 5 -8 12
-8 30 1 18 9 173 20 248 17 13 0 16 -65 21 -495z m329 388 c16 -60 18 -178 4
-209 -45 -94 -54 -178 -22 -216 6 -8 9 -16 6 -19 -14 -14 -40 57 -55 151 -15
91 -15 113 -4 163 7 31 19 86 26 122 7 36 14 67 14 70 3 13 20 -21 31 -62z
m-5375 -6 c6 -58 -10 -73 -20 -18 -6 30 1 83 10 74 2 -2 6 -27 10 -56z m280 1
c-10 -77 -16 -153 -30 -348 -3 -38 -12 -133 -20 -210 -8 -77 -15 -143 -15
-147 0 -51 -83 119 -99 202 -33 174 -13 272 97 460 71 121 77 125 67 43z
m5483 -38 c-10 -10 -49 39 -54 67 -6 32 -5 32 25 -16 18 -26 31 -50 29 -51z
m237 48 c3 -21 11 -56 18 -78 18 -59 12 -77 -26 -73 -29 3 -32 6 -35 43 -4 46
15 145 28 145 5 0 12 -17 15 -37z m-117 0 c-2 -14 -8 -28 -14 -30 -17 -6 -26
27 -13 43 18 22 31 16 27 -13z m-259 -295 c0 -59 -3 -109 -8 -113 -5 -3 -17 5
-25 17 -14 20 -16 20 -22 3 -8 -19 18 -45 43 -45 9 0 13 -12 13 -32 -1 -18 3
-64 9 -103 11 -76 3 -105 -29 -105 -41 0 -90 193 -84 330 6 108 38 243 81 340
8 18 20 -142 22 -292z m-5653 185 c-10 -10 -19 5 -10 18 6 11 8 11 12 0 2 -7
1 -15 -2 -18z m4421 -95 c-3 -7 -5 -2 -5 12 0 14 2 19 5 13 2 -7 2 -19 0 -25z
m-4429 -118 c-3 -91 -4 -97 -15 -68 -22 62 -13 168 14 168 2 0 2 -45 1 -100z
m4292 30 c0 -5 -4 -10 -10 -10 -5 0 -10 5 -10 10 0 6 5 10 10 10 6 0 10 -4 10
-10z m1114 -186 c3 -8 2 -12 -4 -9 -6 3 -10 10 -10 16 0 14 7 11 14 -7z
m-4604 -139 c0 -81 -11 -101 -30 -55 -7 17 -16 30 -20 30 -4 0 -11 7 -14 15
-7 18 42 97 55 89 5 -3 9 -38 9 -79z m4510 5 c0 -22 -35 -54 -49 -45 -12 7
-15 88 -4 98 10 10 53 -33 53 -53z m-1969 -13 c-1 -12 -15 -9 -19 4 -3 6 1 10
8 8 6 -3 11 -8 11 -12z m287 -23 c25 -17 32 -84 10 -84 -12 0 -78 72 -78 84 0
4 14 9 40 15 3 0 16 -6 28 -15z m362 -84 c11 -5 29 -14 40 -20 11 -5 29 -10
39 -10 11 0 23 -4 26 -10 3 -5 19 -10 36 -10 19 0 29 -5 29 -15 0 -18 -20 -65
-36 -85 -7 -8 -33 -55 -59 -105 -26 -49 -50 -97 -55 -105 -5 -8 -11 -22 -14
-30 -4 -8 -16 -31 -27 -50 -12 -19 -35 -60 -52 -90 -39 -72 -109 -200 -122
-222 -5 -9 -28 -52 -50 -95 -23 -43 -66 -121 -96 -173 -31 -52 -62 -106 -70
-119 -38 -67 -92 -137 -126 -165 -46 -39 -109 -76 -129 -76 -12 0 -19 26 -15
53 2 14 12 220 14 297 2 74 2 75 30 78 20 2 27 9 27 24 0 11 8 26 17 33 14 11
15 16 5 28 -21 24 4 57 38 50 17 -3 31 1 40 12 12 15 12 19 -5 31 -17 13 -18
16 -5 24 9 6 16 6 18 0 5 -13 32 -13 32 -1 0 6 -4 13 -10 16 -19 12 -10 27 12
22 29 -8 77 22 85 53 3 14 11 32 18 40 7 8 15 27 19 43 5 20 12 27 31 27 31 0
32 16 3 39 -23 19 -19 34 12 51 16 8 18 8 14 -4 -12 -31 8 -37 33 -11 14 14
30 25 34 25 5 0 9 6 9 13 0 15 -40 42 -59 38 -9 -2 -12 3 -7 14 3 9 6 21 6 26
0 5 5 9 10 9 6 0 10 -6 10 -14 0 -8 6 -16 14 -19 15 -6 36 10 36 28 0 5 13 19
30 30 25 17 27 21 15 35 -12 14 -12 17 5 28 11 7 27 12 36 12 12 0 15 6 10 25
-5 21 -2 27 19 35 28 11 33 28 10 36 -8 4 -15 13 -15 21 0 11 6 10 29 -6 35
-25 39 -26 63 -4 23 21 24 53 1 53 -10 0 -29 9 -42 19 -20 15 -21 19 -7 24 9
4 16 18 16 32 0 28 2 29 30 15z m-4040 -179 c5 -42 16 -115 25 -164 16 -86 16
-88 -6 -127 -18 -32 -28 -40 -48 -38 -22 3 -26 -1 -26 -22 0 -20 5 -25 25 -25
23 0 26 -5 32 -57 4 -34 22 -86 44 -130 32 -64 34 -70 12 -48 -14 14 -33 41
-44 60 -10 19 -24 42 -30 50 -6 8 -17 31 -24 50 -7 19 -22 44 -32 56 -10 11
-18 34 -18 50 0 17 -5 35 -11 41 -13 13 -15 155 -3 175 5 7 9 18 10 24 1 6 17
59 35 119 37 121 42 119 59 -14z m6070 82 c0 -16 -20 -121 -35 -190 -5 -23
-25 -32 -25 -12 0 6 -9 22 -20 36 -29 37 -25 58 20 112 22 26 40 53 40 59 0 7
5 12 10 12 6 0 10 -8 10 -17z m-654 -143 c10 -69 18 -147 16 -175 -11 -231
-10 -271 5 -303 17 -35 14 -46 -8 -37 -14 5 -62 91 -99 179 -30 71 -28 174 5
306 35 141 46 173 55 163 4 -4 16 -64 26 -133z m319 -216 c2 -175 0 -336 -4
-356 -5 -21 -5 -54 -1 -73 13 -56 -11 -43 -57 33 -85 139 -87 145 -87 272 0
132 24 249 76 365 36 82 48 99 60 87 4 -4 10 -152 13 -328z m-5084 298 c-6
-12 -11 -32 -11 -46 0 -31 -15 -34 -31 -5 -9 18 -7 25 17 50 30 32 42 32 25 1z
m2839 19 c23 -3 -50 -38 -95 -45 -44 -8 -82 11 -73 35 4 10 25 14 79 13 41 0
81 -2 89 -3z m-3360 -27 c0 -8 -4 -12 -10 -9 -5 3 -10 10 -10 16 0 5 5 9 10 9
6 0 10 -7 10 -16z m6050 -14 c0 -22 -16 -35 -25 -20 -9 14 4 52 16 45 5 -4 9
-15 9 -25z m-5844 -87 c-3 -38 -8 -126 -12 -198 -4 -71 -8 -143 -9 -160 -2
-16 -6 -83 -10 -147 -11 -165 -32 -160 -89 20 -20 63 -26 105 -27 176 -1 87 2
99 37 182 42 98 95 193 107 194 4 0 5 -30 3 -67z m5874 1 c0 -19 4 -34 10 -34
12 0 24 -45 15 -60 -4 -7 -14 -1 -27 15 -13 17 -28 25 -42 23 -18 -3 -21 -10
-21 -52 0 -33 -5 -51 -14 -54 -10 -3 -12 3 -7 24 3 16 7 49 8 74 1 25 7 59 14
76 11 26 17 31 39 27 21 -5 25 -11 25 -39z m10 -179 c0 -8 -6 -15 -14 -15 -17
0 -29 -27 -15 -36 5 -3 16 0 24 6 12 10 15 10 15 -1 0 -8 -4 -20 -9 -27 -6
-10 -10 -10 -21 3 -17 21 -40 19 -40 -4 0 -36 -19 -32 -29 6 -6 21 -11 46 -11
56 0 19 15 23 25 7 9 -15 41 -12 55 5 7 8 14 15 16 15 2 0 4 -7 4 -15z m-20
-115 c0 -5 -5 -10 -11 -10 -5 0 -7 5 -4 10 3 6 8 10 11 10 2 0 4 -4 4 -10z
m-4192 -160 c54 -124 71 -180 53 -180 -26 0 -8 -17 26 -26 23 -5 39 -16 41
-26 3 -16 -13 -17 -225 -15 -195 2 -228 4 -228 17 0 10 13 17 40 20 27 3 40
10 40 20 0 8 12 34 27 57 16 23 28 44 28 46 0 7 88 156 112 190 11 16 24 25
28 20 4 -4 30 -60 58 -123z m2182 75 c16 -29 7 -43 -15 -25 -16 13 -21 50 -7
50 5 0 15 -11 22 -25z m-30 -40 c12 -37 19 -42 37 -24 8 8 19 0 39 -32 48 -76
85 -150 81 -162 -2 -7 10 -17 27 -23 17 -6 32 -18 34 -27 3 -15 -10 -17 -110
-18 -62 0 -153 -2 -203 -5 -97 -5 -150 4 -150 26 0 8 15 18 33 22 17 5 32 15
32 22 0 28 143 254 162 256 3 0 12 -16 18 -35z m1316 -112 c20 -27 16 -38 -6
-18 -20 18 -26 35 -14 35 4 0 13 -8 20 -17z m-4626 -213 c0 -108 -4 -190 -9
-190 -10 0 -22 25 -86 173 l-38 88 59 60 c32 32 62 59 66 59 4 0 8 -85 8 -190z
m4531 119 c27 -28 49 -53 49 -55 0 -4 -45 -105 -77 -172 -14 -29 -30 -51 -36
-49 -12 4 -23 287 -13 314 9 23 27 14 77 -38z m-4951 -19 c-14 -34 -30 -40
-30 -11 0 20 29 56 38 47 2 -3 -1 -19 -8 -36z m-396 -164 l67 -75 -26 -52
c-15 -28 -30 -48 -34 -43 -4 5 -14 29 -21 54 -8 25 -27 75 -42 112 -15 37 -28
69 -28 72 0 18 25 -2 84 -68z m626 33 c0 -6 22 -58 50 -117 56 -122 84 -216
71 -241 -5 -9 -7 -27 -4 -41 2 -14 -3 -34 -11 -45 -15 -20 -15 -20 -9 2 4 16
0 25 -13 30 -11 4 -25 15 -32 25 -15 20 -47 24 -58 7 -17 -28 -24 29 -24 202
0 102 3 189 6 192 9 8 24 -1 24 -14z m4854 -86 c-8 -104 -7 -463 2 -580 5 -71
3 -83 -10 -83 -18 0 -64 76 -107 179 -40 96 -48 211 -18 257 10 16 19 37 19
46 0 23 32 98 42 98 4 0 10 -5 13 -10 8 -13 25 -3 25 16 0 8 -9 14 -20 14 -16
0 -18 4 -11 23 5 12 14 40 21 62 7 22 17 46 22 53 23 28 29 9 22 -75z m-5620
35 c9 -17 16 -38 16 -45 0 -8 6 -27 14 -41 34 -66 76 -224 76 -287 0 -74 23
-192 46 -236 8 -17 13 -33 10 -36 -6 -6 -96 87 -96 99 0 3 -10 19 -23 35 -46
56 -98 169 -105 230 -9 81 23 313 43 313 2 0 11 -14 19 -32z m6268 -1 c-19
-37 -42 -111 -42 -135 0 -36 -23 -21 -39 25 l-15 41 49 50 c51 52 67 59 47 19z
m-5614 -129 l-3 -53 -22 42 c-28 52 -29 73 -3 106 11 14 21 31 22 39 4 28 9
-84 6 -134z m-140 30 c28 -57 53 -116 57 -133 l7 -30 -21 27 c-12 14 -21 32
-21 40 0 7 -9 19 -21 26 -18 11 -23 11 -34 -5 -17 -23 -21 -12 -29 72 -3 33
-9 70 -12 83 -5 16 -2 22 9 22 9 0 34 -39 65 -102z m1420 86 c46 -6 50 -8 35
-20 -10 -7 -32 -14 -50 -14 -57 0 -84 -22 -44 -35 10 -3 64 -10 118 -14 87 -8
143 -24 143 -41 0 -9 -69 -50 -84 -50 -21 0 -30 -18 -17 -34 8 -10 4 -16 -17
-26 -53 -24 -57 -27 -57 -41 0 -8 14 -17 30 -20 17 -4 23 -8 15 -9 -42 -5 -56
-10 -67 -27 -7 -10 -17 -23 -22 -29 -5 -6 -11 -22 -13 -35 -1 -13 -7 -23 -13
-22 -19 4 -16 43 5 73 l21 29 -21 21 c-29 29 -59 27 -52 -5 4 -24 2 -25 -44
-25 -27 1 -63 9 -81 18 -34 18 -113 103 -113 121 0 20 25 12 58 -19 18 -16 35
-30 37 -30 2 0 21 -11 41 -25 37 -25 64 -32 64 -16 0 5 -20 18 -44 29 -49 23
-90 79 -80 108 10 30 38 87 57 117 17 25 24 27 80 27 34 0 86 -3 115 -6z
m-1594 -214 c4 -69 9 -170 12 -225 2 -55 8 -149 13 -210 5 -60 5 -113 2 -118
-15 -15 -108 148 -140 243 -17 50 -26 206 -14 233 6 12 17 42 26 67 20 57 59
150 72 170 14 22 21 -17 29 -160z m5580 -32 c-2 -106 -9 -271 -14 -366 -5 -95
-7 -179 -4 -186 3 -8 1 -17 -5 -20 -12 -8 -61 66 -61 93 0 10 -7 21 -15 25 -8
3 -15 16 -15 29 0 13 -6 29 -12 35 -9 9 -13 45 -12 115 2 115 9 168 30 214 8
17 14 38 14 46 0 9 5 19 10 22 6 3 10 17 10 30 0 13 4 26 9 29 5 3 12 18 16
33 6 27 42 93 50 93 2 0 2 -87 -1 -192z m-4486 -119 c140 -4 256 -10 260 -13
3 -3 -5 -6 -17 -6 -12 0 -39 -9 -61 -20 -22 -11 -48 -20 -60 -20 -11 0 -20 -4
-20 -9 0 -9 32 -17 120 -30 30 -4 67 -13 81 -20 21 -10 31 -10 49 -1 15 8 25
9 32 2 15 -15 0 -32 -27 -32 -18 0 -24 -6 -27 -27 -2 -21 -9 -29 -27 -31 -13
-2 -25 -12 -28 -22 -3 -10 -11 -21 -19 -24 -8 -3 -14 -11 -14 -19 0 -7 -18
-26 -40 -43 -40 -29 -49 -47 -29 -60 6 -4 -7 -18 -32 -35 -24 -16 -44 -37 -44
-46 0 -10 -9 -19 -20 -21 -30 -5 -65 -24 -65 -36 0 -6 7 -23 14 -38 14 -26 5
-41 -9 -18 -3 6 -15 10 -26 10 -53 0 -185 97 -225 166 -51 87 -63 143 -63 286
0 129 1 130 22 123 12 -4 136 -11 275 -16z m4842 -146 c0 -10 -9 -29 -20 -43
l-21 -25 10 25 c5 14 12 33 15 43 3 9 8 17 11 17 3 0 5 -8 5 -17z m-5296 -173
c8 -28 23 -64 32 -80 10 -16 15 -32 11 -36 -6 -7 -132 41 -150 56 -10 9 64
110 80 110 7 0 19 -23 27 -50z m4474 0 c17 -21 32 -44 32 -50 0 -6 -25 -22
-55 -36 -80 -35 -101 -32 -72 11 8 11 22 41 32 68 10 26 20 47 24 47 3 0 21
-18 39 -40z m-4822 -165 c10 -8 36 -15 56 -15 34 0 39 -4 53 -37 9 -21 12 -40
7 -45 -13 -13 -192 51 -192 68 0 12 37 44 50 44 4 0 15 -7 26 -15z m4833 -18
c-20 -17 -98 -88 -173 -157 -76 -69 -169 -145 -206 -171 -38 -25 -95 -69 -126
-98 -53 -48 -60 -51 -81 -40 -28 15 -28 22 -5 57 11 15 32 46 47 70 95 144
170 196 515 355 57 26 68 19 29 -16z m319 14 c12 -11 22 -23 22 -28 0 -13
-184 -73 -194 -63 -5 5 -2 24 8 44 15 32 21 36 54 36 20 0 46 7 56 15 25 19
26 18 54 -4z m-4283 -21 c3 -5 -1 -10 -10 -10 -9 0 -13 5 -10 10 3 6 8 10 10
10 2 0 7 -4 10 -10z m-604 -86 c24 -22 53 -51 64 -63 l20 -23 -55 24 c-41 18
-59 33 -72 59 -32 63 -22 64 43 3z m4579 -29 c-7 -9 -15 -13 -17 -11 -7 7 7
26 19 26 6 0 6 -6 -2 -15z m-4729 -40 c24 -8 53 -19 64 -24 11 -5 31 -13 45
-19 l25 -11 -25 0 c-15 -1 -30 3 -35 8 -6 5 -32 16 -60 25 -52 17 -88 36 -69
36 6 0 31 -7 55 -15z m4970 -9 c-6 -8 -26 -19 -44 -26 -59 -21 -102 -45 -115
-62 -7 -10 -20 -18 -28 -18 -8 0 -17 -7 -20 -15 -4 -8 -14 -15 -24 -15 -23 0
-82 -31 -93 -47 -4 -7 -15 -13 -22 -13 -8 0 -15 -5 -15 -10 0 -6 -8 -13 -17
-17 -10 -3 -25 -11 -33 -18 -8 -6 -37 -20 -65 -30 -27 -9 -54 -23 -60 -29 -13
-14 -66 -38 -72 -32 -9 9 62 66 89 72 15 4 33 13 39 20 6 8 22 14 35 14 16 0
24 6 24 18 0 17 40 42 67 42 8 0 24 11 36 25 28 32 153 101 237 130 79 28 97
31 81 11z m-4410 -23 c13 -16 12 -17 -3 -4 -10 7 -18 15 -18 17 0 8 8 3 21
-13z m-600 -118 c56 -44 134 -105 173 -135 39 -31 115 -92 170 -135 54 -44
108 -87 120 -95 25 -17 118 -92 126 -101 3 -3 14 -11 25 -18 57 -34 -149 29
-255 78 -168 79 -277 153 -326 223 -35 49 -154 253 -154 263 0 12 17 1 121
-80z m301 42 c46 -23 110 -60 142 -82 71 -47 176 -142 176 -160 0 -6 9 -20 20
-30 11 -10 20 -23 20 -29 0 -6 -26 16 -58 49 -74 76 -143 133 -207 169 -27 16
-57 34 -65 41 -8 7 -43 27 -77 45 -35 18 -63 34 -63 36 0 12 39 -1 112 -39z
m-673 -19 c53 -29 123 -66 156 -84 58 -30 77 -52 117 -135 19 -39 88 -110 139
-143 24 -16 55 -37 69 -46 14 -9 66 -36 115 -60 61 -30 84 -45 71 -48 -31 -7
-257 68 -360 119 -80 41 -123 78 -203 173 -37 44 -77 92 -89 106 -18 20 -80
98 -127 158 -19 24 17 12 112 -40z m871 37 c20 -24 6 -28 -15 -5 -10 11 -13
20 -8 20 6 0 16 -7 23 -15z m4528 -33 c-7 -9 -22 -33 -32 -52 -10 -19 -27 -44
-36 -55 -10 -11 -20 -29 -24 -41 -8 -27 -100 -120 -149 -151 -28 -18 -42 -22
-50 -14 -16 16 -47 13 -47 -4 0 -8 8 -15 18 -15 16 -1 16 -1 -1 -11 -14 -8
-21 -7 -32 7 -11 15 -17 17 -36 7 -13 -6 -33 -13 -44 -16 -11 -3 -38 -13 -60
-22 l-40 -17 20 22 c11 12 88 73 170 135 83 62 195 147 250 189 55 42 102 71
103 66 2 -6 -2 -19 -10 -28z m-4347 6 c11 -21 11 -22 -4 -9 -10 7 -17 17 -17
22 0 15 9 10 21 -13z m839 2 c0 -13 -20 -13 -40 0 -12 8 -9 10 13 10 15 0 27
-4 27 -10z m-578 -14 c24 -8 91 -22 151 -32 59 -9 107 -21 107 -25 0 -8 -31
-18 -120 -39 -19 -5 -54 -13 -76 -19 -72 -19 -83 -16 -105 34 -11 24 -24 47
-29 50 -6 3 -10 15 -10 26 0 23 23 25 82 5z m718 4 c8 -5 11 -12 8 -15 -10
-10 -69 5 -62 16 7 12 35 11 54 -1z m2430 3 c0 -5 -14 -36 -32 -70 -37 -73
-42 -74 -152 -43 -39 11 -88 25 -108 31 -21 5 -38 13 -38 18 0 4 46 15 103 25
56 9 122 23 147 31 51 16 80 18 80 8z m-3535 -13 c3 -5 -1 -10 -9 -10 -8 0
-18 5 -21 10 -3 6 1 10 9 10 8 0 18 -4 21 -10z m45 -30 c8 -5 12 -11 9 -14 -3
-3 -14 1 -25 9 -21 16 -8 20 16 5z m3215 -281 c-99 -39 -101 -40 -165 -28 -36
6 -85 17 -110 24 -44 12 -43 12 78 20 67 4 146 11 175 15 122 18 127 11 22
-31z m-2702 14 c-7 -2 -19 -2 -25 0 -7 3 -2 5 12 5 14 0 19 -2 13 -5z m4027
-3 c0 -16 -92 -80 -175 -121 -82 -40 -270 -99 -315 -99 -24 1 -24 1 -5 13 11
6 43 21 70 33 28 12 84 36 125 54 41 18 87 41 102 51 14 11 40 19 57 19 17 0
31 5 31 10 0 6 9 10 19 10 11 0 23 5 26 11 13 20 65 36 65 19z m-4093 -43 c25
-12 45 -26 45 -32 -1 -10 -104 -45 -134 -45 -19 0 -24 41 -12 88 8 27 26 25
101 -11z m2947 21 c25 -94 25 -98 -3 -97 -35 1 -134 33 -138 46 -2 5 25 21 59
36 73 30 78 31 82 15z m-2279 -28 c3 -6 -4 -10 -17 -10 -18 0 -20 2 -8 10 19
12 18 12 25 0z m163 -1 c110 -11 192 -32 271 -66 77 -33 57 -39 -36 -10 -132
42 -167 52 -188 52 -69 3 -174 19 -169 26 7 11 5 11 122 -2z m-283 -8 c-12
-11 -125 -19 -125 -9 0 7 40 14 100 16 21 1 30 -2 25 -7z m45 -1 c-20 -13 -33
-13 -25 0 3 6 14 10 23 10 15 0 15 -2 2 -10z m3015 0 c-3 -5 -12 -10 -18 -10
-7 0 -6 4 3 10 19 12 23 12 15 0z m-2115 -23 c27 -14 55 -60 40 -65 -5 -2 -25
8 -44 23 -25 19 -41 24 -59 20 -26 -7 -43 7 -32 25 9 14 65 12 95 -3z m1225
-49 c18 -17 -125 14 -148 33 -5 4 24 0 65 -8 40 -8 78 -19 83 -25z m675 5 c0
-15 -15 -30 -35 -35 -11 -3 -29 -9 -40 -13 -11 -3 -6 1 10 11 17 9 34 23 38
30 8 15 27 19 27 7z m-3560 -12 c0 -12 -21 -19 -37 -13 -22 8 -14 22 12 22 14
0 25 -4 25 -9z m3230 1 c0 -14 -11 -21 -26 -15 -21 8 -17 23 6 23 11 0 20 -4
20 -8z m-205 -28 l30 -12 -33 -1 c-31 -1 -102 22 -102 33 0 8 72 -6 105 -20z
m-91 -74 c-7 -6 -81 -29 -165 -50 -286 -72 -509 -70 -794 7 -70 19 -97 31 -91
41 2 4 242 9 533 11 401 2 525 0 517 -9z m-1644 -23 c0 -17 -95 -42 -300 -78
-198 -35 -418 -21 -568 35 -20 8 -62 20 -92 26 -30 7 -62 16 -70 21 -8 5 212
8 507 6 288 -1 523 -5 523 -10z m662 -103 c67 -19 131 -40 142 -47 19 -10 18
-11 -19 -19 -22 -5 -44 -13 -49 -18 -18 -18 -54 -10 -122 25 -37 20 -69 37
-70 38 -7 6 -15 57 -10 57 4 0 61 -16 128 -36z m1068 -20 c28 -14 49 -28 47
-30 -2 -3 -35 0 -73 6 -92 14 -117 20 -111 27 5 4 53 18 79 22 3 1 30 -11 58
-25z m-222 -59 c133 -21 152 -25 152 -35 0 -4 -15 -10 -32 -12 -60 -9 -203
-39 -223 -48 -11 -5 -53 -18 -94 -31 -63 -18 -89 -21 -180 -16 -134 7 -311 57
-311 88 0 6 9 8 19 4 17 -5 62 8 126 36 75 32 374 40 543 14z m-1538 -78 c0
-20 -70 -82 -119 -107 -59 -29 -171 -60 -218 -60 l-38 1 48 44 c34 31 64 48
105 60 31 8 91 29 132 44 89 34 90 35 90 18z m844 -59 c101 -31 136 -50 136
-73 0 -43 -154 -18 -237 38 -48 32 -57 43 -48 57 10 16 42 12 149 -22z"/>
<path d="M5137 3964 c-14 -15 -6 -34 14 -34 14 0 19 5 17 17 -3 18 -20 27 -31
17z"/>
<path d="M4483 1713 c9 -2 25 -2 35 0 9 3 1 5 -18 5 -19 0 -27 -2 -17 -5z"/>
<path d="M3320 1450 c0 -5 5 -10 10 -10 6 0 10 5 10 10 0 6 -4 10 -10 10 -5 0
-10 -4 -10 -10z"/>
<path d="M6335 3910 c-3 -5 1 -10 9 -10 9 0 16 5 16 10 0 6 -4 10 -9 10 -6 0
-13 -4 -16 -10z"/>
<path d="M4727 3493 c-22 -21 2 -56 31 -46 17 7 15 40 -4 47 -19 7 -19 7 -27
-1z"/>
<path d="M4775 3400 c-8 -13 37 -31 49 -20 4 5 5 13 2 19 -9 14 -43 14 -51 1z"/>
<path d="M4670 3305 c0 -10 11 -15 35 -15 26 0 33 3 29 15 -4 9 -19 15 -35 15
-19 0 -29 -5 -29 -15z"/>
<path d="M4370 2810 c0 -5 5 -10 10 -10 6 0 10 5 10 10 0 6 -4 10 -10 10 -5 0
-10 -4 -10 -10z"/>
<path d="M4180 2665 c0 -8 9 -15 20 -15 11 0 20 7 20 15 0 8 -9 15 -20 15 -11
0 -20 -7 -20 -15z"/>
<path d="M6132 2268 c-6 -7 -8 -34 -5 -60 5 -42 8 -48 29 -48 31 0 37 24 25
113 -2 12 -38 8 -49 -5z"/>
<path d="M6164 2099 c-10 -17 13 -36 27 -22 12 12 4 33 -11 33 -5 0 -12 -5
-16 -11z"/>
<path d="M6110 2080 c0 -5 5 -10 10 -10 6 0 10 5 10 10 0 6 -4 10 -10 10 -5 0
-10 -4 -10 -10z"/>
<path d="M6431 1834 c0 -11 3 -14 6 -6 3 7 2 16 -1 19 -3 4 -6 -2 -5 -13z"/>
</g>
</svg>
