<?xml version="1.0" standalone="no"?>
<!DOCTYPE svg PUBLIC "-//W3C//DTD SVG 20010904//EN"
 "http://www.w3.org/TR/2001/REC-SVG-20010904/DTD/svg10.dtd">
<svg version="1.0" xmlns="http://www.w3.org/2000/svg"
 width="370.000000pt" height="331.000000pt" viewBox="0 0 370.000000 331.000000"
 preserveAspectRatio="xMidYMid meet">

<g transform="translate(0.000000,331.000000) scale(0.100000,-0.100000)"
fill="#000000" stroke="none">
<path d="M3420 3077 c-54 -121 -54 -119 -60 -767 -5 -596 -5 -606 -27 -645
-12 -22 -72 -89 -135 -150 -396 -383 -479 -468 -476 -489 5 -32 43 -32 91 1
22 15 153 136 291 269 221 211 255 248 286 309 l35 68 5 591 6 591 33 108 c30
102 31 110 16 133 -23 35 -44 30 -65 -19z"/>
<path d="M530 2802 c126 -105 196 -197 247 -322 49 -122 53 -165 53 -601 0
-446 6 -508 60 -671 36 -109 89 -214 90 -180 0 13 -13 76 -30 140 -46 180 -50
229 -50 633 0 492 -12 561 -126 741 -73 115 -89 157 -64 173 13 8 65 9 150 1
90 -8 81 -1 -55 47 -102 35 -192 60 -280 76 l-50 9 55 -46z"/>
<path d="M2998 2830 c-111 -23 -213 -57 -228 -75 -7 -8 -9 -22 -6 -31 5 -13
18 -15 84 -9 42 4 88 14 102 23 19 12 113 85 139 108 5 5 13 6 -91 -16z"/>
<path d="M2090 1118 l0 -632 -151 -151 c-158 -160 -161 -165 -85 -165 42 0 89
34 187 136 122 127 114 73 114 784 0 563 -1 608 -18 633 -9 15 -24 27 -32 27
-13 0 -15 -81 -15 -632z"/>
<path d="M1750 1623 c17 -29 33 -53 35 -53 1 0 5 6 8 14 3 7 -12 30 -35 52
l-40 39 32 -52z"/>
</g>
</svg>
