<?xml version="1.0" standalone="no"?>
<!DOCTYPE svg PUBLIC "-//W3C//DTD SVG 20010904//EN"
 "http://www.w3.org/TR/2001/REC-SVG-20010904/DTD/svg10.dtd">
<svg version="1.0" xmlns="http://www.w3.org/2000/svg"
 width="557.000000pt" height="549.000000pt" viewBox="0 0 557.000000 549.000000"
 preserveAspectRatio="xMidYMid meet">

<g transform="translate(0.000000,549.000000) scale(0.100000,-0.100000)"
fill="#000000" stroke="none">
<path d="M2595 5444 c-347 -35 -550 -81 -805 -181 -293 -115 -551 -273 -800
-489 -396 -343 -698 -832 -831 -1344 -145 -562 -107 -1172 106 -1691 255 -623
696 -1103 1290 -1406 1054 -536 2339 -321 3160 528 384 397 635 889 725 1419
71 421 45 847 -75 1245 -279 923 -1030 1630 -1964 1851 -185 44 -353 64 -566
68 -110 2 -218 2 -240 0z m545 -209 c548 -85 1025 -327 1410 -714 335 -337
545 -705 660 -1155 149 -585 86 -1192 -179 -1731 -144 -291 -303 -505 -552
-741 -340 -322 -798 -547 -1294 -635 -173 -31 -529 -38 -715 -15 -494 62 -929
252 -1318 574 -385 318 -681 784 -812 1276 -179 672 -70 1398 296 1983 410
653 1106 1090 1869 1172 132 14 509 6 635 -14z"/>
<path d="M2560 5144 c-14 -2 -65 -9 -115 -15 -891 -108 -1686 -773 -1964
-1644 -81 -253 -114 -467 -115 -735 0 -395 74 -718 245 -1066 71 -146 199
-348 293 -463 376 -459 934 -776 1516 -861 195 -29 512 -29 710 0 747 110
1419 588 1775 1264 286 542 352 1202 181 1792 -113 388 -319 736 -606 1024
-368 369 -828 604 -1345 686 -95 15 -515 28 -575 18z m514 -166 c79 -24 156
-127 156 -209 0 -31 -42 -119 -66 -141 -10 -9 -38 -27 -61 -40 l-41 -24 78
-124 c44 -68 77 -126 75 -128 -6 -6 -148 29 -161 39 -6 5 -39 54 -73 109 l-62
100 -75 0 -74 0 0 -95 0 -95 -70 0 -70 0 0 310 0 310 201 0 c130 0 216 -4 243
-12z m-898 -185 c48 -54 107 -118 129 -143 241 -262 258 -282 244 -291 -8 -5
-25 -9 -39 -9 -14 0 -40 -4 -57 -9 -31 -9 -35 -7 -90 53 l-58 63 -85 -27 c-47
-15 -104 -35 -126 -44 l-42 -17 -7 -84 -7 -84 -65 -36 c-36 -20 -66 -35 -68
-33 -6 8 46 703 53 710 7 7 107 45 124 47 3 1 46 -43 94 -96z m1462 33 c29
-11 52 -25 52 -31 0 -9 -228 -565 -234 -573 -4 -3 -108 39 -119 48 -4 3 40
121 99 261 58 140 112 269 120 287 7 19 17 32 22 30 4 -1 31 -12 60 -22z
m-2030 -231 c78 -33 125 -106 125 -195 0 -76 -22 -120 -100 -203 -37 -40 -81
-87 -98 -105 l-30 -34 70 -64 69 -64 -44 -45 c-24 -25 -47 -45 -50 -45 -5 0
-66 55 -275 245 -49 46 -110 101 -134 123 l-45 39 28 34 c16 19 66 75 111 124
45 50 94 104 109 122 60 72 180 102 264 68z m2516 -55 c43 -20 88 -53 131 -96
64 -64 125 -154 125 -184 -1 -8 -20 -29 -43 -47 l-41 -32 -26 48 c-40 72 -76
115 -135 161 -80 62 -146 74 -160 30 -9 -27 3 -45 95 -145 133 -146 173 -263
118 -345 -77 -112 -241 -85 -393 65 -39 39 -91 103 -115 144 l-44 74 44 39
c25 21 48 38 52 38 4 0 22 -28 40 -62 45 -87 169 -212 225 -228 38 -12 45 -11
63 5 42 38 21 82 -97 208 -98 104 -122 150 -123 224 0 42 5 58 27 84 57 68
142 74 257 19z m-1049 -349 c319 -74 558 -208 778 -438 185 -192 320 -449 377
-721 30 -141 37 -357 16 -500 -50 -335 -195 -623 -434 -856 -269 -263 -602
-408 -973 -423 -329 -13 -619 68 -893 251 -213 141 -384 337 -500 571 -118
236 -163 447 -153 715 6 172 26 281 77 430 177 518 628 896 1177 985 128 21
408 13 528 -14z m-1701 -2614 c15 -11 41 -41 57 -66 28 -43 28 -47 12 -59 -15
-11 -20 -8 -35 22 -20 38 -75 89 -92 83 -22 -7 -16 -37 17 -86 44 -64 52 -96
32 -127 -40 -61 -143 -8 -191 98 -16 35 -16 40 -2 55 15 14 18 11 35 -28 25
-56 77 -112 100 -107 31 6 26 38 -16 100 -43 64 -50 93 -28 120 25 32 60 31
111 -5z m2923 -53 c110 -101 107 -109 -41 -101 l-111 7 63 -56 c50 -45 60 -59
51 -70 -6 -8 -14 -14 -18 -14 -3 0 -44 35 -91 79 -74 69 -83 80 -71 94 11 14
27 16 90 11 42 -3 90 -7 106 -10 28 -4 25 0 -34 54 -41 36 -62 63 -57 70 13
22 30 12 113 -64z m-216 -226 c70 -75 87 -108 55 -108 -6 0 -47 39 -90 86 -61
67 -76 88 -65 95 8 5 16 9 19 9 3 0 39 -36 81 -82z m-2481 47 c10 -12 6 -37
-21 -135 -21 -75 -38 -120 -46 -120 -20 0 -26 24 -14 65 9 34 8 38 -22 65 -37
34 -43 35 -86 14 -30 -15 -34 -15 -49 0 -15 14 -6 20 99 70 63 30 117 55 120
55 4 1 12 -6 19 -14z m2361 -136 c57 -34 106 -64 108 -66 3 -2 -2 -10 -11 -19
-13 -14 -19 -13 -52 7 l-37 21 -39 -26 c-38 -25 -39 -28 -34 -69 5 -32 2 -46
-9 -55 -18 -16 -18 -18 -47 131 -17 85 -19 111 -10 123 7 8 16 14 19 14 4 0
54 -28 112 -61z m-2196 11 c7 -12 -116 -199 -132 -200 -30 0 -20 28 37 116 59
88 80 108 95 84z m97 -62 c8 -8 20 -45 27 -88 22 -134 19 -131 63 -52 27 50
43 69 53 65 22 -8 19 -16 -30 -111 -59 -114 -59 -114 -78 -107 -11 5 -21 35
-33 106 -10 54 -21 99 -26 99 -4 0 -23 -29 -40 -65 -34 -69 -35 -70 -57 -56
-11 7 -3 30 40 115 30 58 57 106 60 106 3 0 12 -6 21 -12z m1896 -99 c29 -55
50 -104 47 -109 -14 -23 -37 -6 -67 53 l-33 62 -3 -72 c-2 -40 -5 -73 -8 -73
-3 0 -32 18 -64 40 l-59 40 29 -66 c17 -36 27 -70 24 -75 -14 -23 -33 -1 -82
96 -48 96 -50 105 -33 114 14 8 32 0 84 -35 l67 -44 0 78 c0 43 3 82 7 85 21
21 42 -1 91 -94z m-1488 -90 c0 -26 -11 -29 -47 -14 -20 8 -36 15 -38 15 -1 0
-8 -19 -15 -42 -21 -73 -51 -148 -58 -148 -4 0 -13 4 -20 8 -10 7 -6 27 18 91
16 45 30 88 30 96 0 7 -13 16 -30 20 -34 7 -42 17 -34 38 8 21 194 -40 194
-64z m1154 25 c26 -25 30 -61 11 -90 -17 -26 -16 -27 15 -59 30 -31 33 -55 7
-55 -6 0 -28 16 -48 36 -33 32 -40 35 -73 28 -35 -6 -37 -9 -30 -33 12 -45 10
-75 -6 -79 -12 -2 -24 25 -49 108 -18 61 -31 114 -28 116 11 11 123 42 154 43
17 1 39 -6 47 -15z m-274 -63 c0 -22 -12 -27 -92 -36 -54 -6 -58 -8 -58 -32 0
-24 2 -25 39 -20 32 4 40 2 44 -13 6 -24 0 -30 -34 -30 -33 0 -42 -11 -34 -43
6 -23 6 -23 86 -12 78 11 79 11 79 -10 0 -19 -8 -23 -77 -33 -87 -13 -123 -15
-123 -6 0 4 -7 54 -16 111 -8 58 -12 108 -9 112 6 6 128 27 173 30 16 1 22 -5
22 -18z m-291 -32 c30 -18 32 -22 19 -35 -13 -13 -18 -13 -44 1 -42 21 -79 19
-110 -9 -52 -44 -30 -126 37 -141 34 -8 82 13 87 38 3 14 -4 17 -37 17 -34 0
-41 3 -41 20 0 18 7 20 60 20 l60 0 0 -43 c0 -53 -25 -83 -77 -93 -53 -10
-112 13 -140 55 -76 113 66 243 186 170z m-392 -59 c9 0 13 -8 11 -22 -3 -23
-10 -25 -65 -13 -15 4 -23 13 -23 26 0 19 4 21 31 15 17 -3 38 -6 46 -6z"/>
<path d="M2770 4775 l0 -95 131 0 131 0 29 29 c31 32 38 75 17 114 -22 42 -37
46 -175 47 l-133 0 0 -95z"/>
<path d="M2058 4615 c-2 -66 -3 -121 -3 -122 0 -1 32 9 70 23 39 13 76 27 83
29 16 6 -1 31 -87 125 l-59 65 -4 -120z"/>
<path d="M1407 4418 c-32 -35 -75 -83 -95 -107 l-37 -44 70 -63 c53 -48 72
-60 82 -52 7 6 50 51 94 99 66 72 82 96 86 128 5 35 2 44 -25 71 -24 24 -39
30 -73 30 -40 0 -48 -5 -102 -62z"/>
<path d="M2650 4045 c0 -100 -28 -342 -55 -478 -47 -239 -140 -510 -241 -704
-24 -47 -44 -87 -44 -89 0 -2 209 -4 465 -4 l465 0 -49 99 c-87 172 -128 279
-201 526 -39 129 -90 478 -90 612 0 108 6 103 -131 103 l-119 0 0 -65z"/>
<path d="M2490 4084 c-353 -76 -665 -288 -864 -589 -95 -143 -153 -276 -197
-455 -20 -83 -23 -120 -24 -295 0 -250 24 -375 111 -573 l24 -54 61 49 c101
78 316 291 399 393 222 274 384 597 478 950 60 223 112 592 85 589 -5 0 -37
-7 -73 -15z"/>
<path d="M2976 4073 c2 -16 8 -75 14 -133 45 -430 192 -848 418 -1189 138
-209 349 -436 543 -587 l57 -43 31 70 c80 180 116 374 107 594 -8 218 -50 385
-142 569 -134 265 -372 499 -639 626 -89 42 -246 94 -315 105 -25 3 -52 8 -61
11 -12 3 -15 -2 -13 -23z"/>
<path d="M2208 2613 c-115 -178 -321 -411 -507 -575 l-75 -65 52 -70 c62 -83
215 -233 297 -289 l60 -42 1 112 c1 93 5 124 28 191 102 298 375 486 706 488
141 0 220 -17 345 -77 155 -75 259 -176 330 -321 49 -99 69 -183 69 -297 1
-63 4 -94 11 -89 159 117 271 223 356 337 l42 58 -59 49 c-94 80 -304 295
-377 387 -38 47 -100 131 -138 188 l-70 102 -508 0 -507 0 -56 -87z"/>
<path d="M2640 2274 c-192 -41 -353 -183 -418 -368 -46 -131 -27 -326 40 -426
26 -38 74 -58 223 -93 75 -17 123 -21 285 -21 207 -1 283 9 428 58 57 19 70
28 90 62 40 70 62 159 62 253 0 151 -51 272 -160 381 -140 140 -347 198 -550
154z m189 -249 c50 -120 50 -147 2 -243 -23 -45 -41 -88 -41 -96 0 -25 -21
-29 -27 -6 -3 12 -23 58 -44 102 -22 44 -39 94 -39 114 0 40 41 153 71 195 27
39 39 29 78 -66z m-232 -196 c52 -19 123 -105 123 -149 0 -29 -12 -25 -36 13
-28 43 -88 76 -112 61 -24 -15 -21 -37 6 -49 27 -12 28 -26 2 -50 -46 -42
-130 12 -130 84 0 78 68 120 147 90z m452 -3 c30 -16 51 -53 51 -92 0 -32 -59
-94 -90 -94 -52 0 -84 51 -39 63 33 9 22 51 -15 55 -23 3 -37 -6 -78 -48 -27
-28 -52 -49 -55 -46 -11 10 7 53 41 98 55 71 124 95 185 64z m-243 -231 l22
-33 -27 -32 -27 -33 -27 32 c-27 33 -34 51 -19 51 5 0 14 11 20 25 16 34 33
31 58 -10z"/>
<path d="M1522 1287 l-23 -13 20 -18 c20 -18 21 -18 31 8 16 42 12 45 -28 23z"/>
<path d="M3874 1183 c10 -37 11 -38 36 -20 l22 15 -32 17 -33 17 7 -29z"/>
<path d="M3312 953 c-37 -13 -42 -18 -36 -36 10 -32 10 -32 62 -18 55 14 75
31 66 54 -7 20 -35 20 -92 0z"/>
</g>
</svg>
